<svg width="354" height="73" viewBox="0 0 354 73" fill="none" xmlns="http://www.w3.org/2000/svg">
<g clip-path="url(#clip0_2077_2)">
<path d="M16.9399 13.4223C19.2541 13.4223 21.198 11.4784 21.198 9.16421C21.198 6.85002 19.2541 4.90609 16.9399 4.90609C14.6257 4.90609 12.6818 6.85002 12.6818 9.16421C12.6818 11.4784 14.6257 13.4223 16.9399 13.4223ZM14.6257 43.5069C14.6257 44.1548 15.1811 44.7102 15.8291 44.7102C16.4771 44.7102 17.0325 44.1548 17.0325 43.5069C17.0325 42.8589 16.4771 42.3035 15.8291 42.3035C15.1811 42.3035 14.6257 42.8589 14.6257 43.5069ZM23.1419 18.7913C24.1602 18.7913 24.9007 17.9581 24.9007 17.0325C24.9007 16.0142 24.0676 15.2737 23.1419 15.2737C22.1237 15.2737 21.3832 16.1068 21.3832 17.0325C21.3832 17.9581 22.1237 18.7913 23.1419 18.7913ZM9.16421 34.8055C11.4784 34.8055 13.4223 32.8616 13.4223 30.5474C13.4223 28.2332 11.4784 26.2893 9.16421 26.2893C6.85002 26.2893 4.90609 28.2332 4.90609 30.5474C4.99866 32.8616 6.85002 34.8055 9.16421 34.8055ZM3.05474 24.8082C4.07298 24.8082 4.81353 23.9751 4.81353 23.0494C4.81353 22.0311 3.98042 21.2906 3.05474 21.2906C2.03649 21.2906 1.29595 22.1237 1.29595 23.0494C1.29595 24.0676 2.03649 24.8082 3.05474 24.8082ZM2.40676 28.696C2.40676 28.048 1.85136 27.4926 1.20338 27.4926C0.555407 27.4926 0 28.048 0 28.696C0 29.344 0.555407 29.8994 1.20338 29.8994C1.85136 29.8994 2.40676 29.344 2.40676 28.696ZM8.0534 18.6987C9.71962 18.6987 11.0156 17.4027 11.0156 15.7365C11.0156 14.0703 9.71962 12.7744 8.0534 12.7744C6.38718 12.7744 5.09123 14.0703 5.09123 15.7365C5.09123 17.4027 6.38718 18.6987 8.0534 18.6987ZM44.0623 2.40676C44.7102 2.40676 45.2656 1.85136 45.2656 1.20338C45.2656 0.555407 44.7102 0 44.0623 0C43.4143 0 42.8589 0.555407 42.8589 1.20338C42.8589 1.85136 43.4143 2.40676 44.0623 2.40676ZM11.6635 43.044C11.6635 40.1744 9.34935 37.8602 6.47975 37.8602C3.61014 37.8602 1.29595 40.1744 1.29595 43.044C1.29595 45.9136 3.61014 48.2278 6.47975 48.2278C9.34935 48.2278 11.6635 45.9136 11.6635 43.044ZM63.5941 21.198C65.9083 21.198 67.8522 19.2541 67.8522 16.9399C67.8522 14.6257 65.9083 12.6818 63.5941 12.6818C61.2799 12.6818 59.336 14.6257 59.336 16.9399C59.336 19.2541 61.1873 21.198 63.5941 21.198ZM54.0596 50.4494C54.0596 52.1157 55.3555 53.4116 57.0218 53.4116C58.688 53.4116 59.9839 52.1157 59.9839 50.4494C59.9839 48.7832 58.688 47.4873 57.0218 47.4873C55.3555 47.4873 54.0596 48.7832 54.0596 50.4494ZM57.0218 11.0156C58.688 11.0156 59.9839 9.71962 59.9839 8.0534C59.9839 6.38718 58.688 5.09123 57.0218 5.09123C55.3555 5.09123 54.0596 6.38718 54.0596 8.0534C54.0596 9.71962 55.3555 11.0156 57.0218 11.0156ZM50.4494 18.6987C52.1157 18.6987 53.4116 17.4027 53.4116 15.7365C53.4116 14.0703 52.1157 12.7744 50.4494 12.7744C48.7832 12.7744 47.4873 14.0703 47.4873 15.7365C47.4873 17.4027 48.7832 18.6987 50.4494 18.6987ZM61.0947 29.1589C61.0947 32.0285 63.4089 34.3426 66.2785 34.3426C69.1481 34.3426 71.4623 32.0285 71.4623 29.1589C71.4623 26.2893 69.1481 23.9751 66.2785 23.9751C63.4089 23.9751 61.0947 26.2893 61.0947 29.1589ZM58.1326 28.696C58.1326 28.048 57.5772 27.4926 56.9292 27.4926C56.2812 27.4926 55.7258 28.048 55.7258 28.696C55.7258 29.344 56.2812 29.8994 56.9292 29.8994C57.5772 29.8994 58.1326 29.344 58.1326 28.696ZM49.6163 4.72096C50.6346 4.72096 51.3751 3.88785 51.3751 2.96217C51.3751 2.03649 50.542 1.20338 49.6163 1.20338C48.5981 1.20338 47.8576 2.03649 47.8576 2.96217C47.8576 3.88785 48.6907 4.72096 49.6163 4.72096ZM55.1704 24.8082C56.1887 24.8082 56.9292 23.9751 56.9292 23.0494C56.9292 22.0311 56.0961 21.2906 55.1704 21.2906C54.2447 21.2906 53.4116 22.1237 53.4116 23.0494C53.4116 24.0676 54.2447 24.8082 55.1704 24.8082ZM18.6987 21.7534C18.6987 20.0872 17.4027 18.7913 15.7365 18.7913C14.0703 18.7913 12.7744 20.0872 12.7744 21.7534C12.7744 23.4196 14.0703 24.7156 15.7365 24.7156C17.4027 24.7156 18.6987 23.4196 18.6987 21.7534ZM49.6163 53.4116C48.5981 53.4116 47.8576 54.2447 47.8576 55.1704C47.8576 56.1886 48.6907 56.9292 49.6163 56.9292C50.6346 56.9292 51.3751 56.0961 51.3751 55.1704C51.3751 54.2447 50.6346 53.4116 49.6163 53.4116ZM43.5994 60.5393C40.7298 60.5393 38.4156 62.8535 38.4156 65.7231C38.4156 68.5927 40.7298 70.9069 43.5994 70.9069C46.469 70.9069 48.7832 68.5927 48.7832 65.7231C48.7832 62.8535 46.469 60.5393 43.5994 60.5393ZM55.8184 58.7805C53.5042 58.7805 51.5603 60.7245 51.5603 63.0387C51.5603 65.3529 53.5042 67.2968 55.8184 67.2968C58.1326 67.2968 60.0765 65.3529 60.0765 63.0387C60.0765 60.7245 58.1326 58.7805 55.8184 58.7805ZM42.8589 56.9292C42.8589 57.5772 43.4143 58.1326 44.0623 58.1326C44.7102 58.1326 45.2656 57.5772 45.2656 56.9292C45.2656 56.2812 44.7102 55.7258 44.0623 55.7258C43.4143 55.8184 42.8589 56.2812 42.8589 56.9292ZM71.5549 42.3035C70.9069 42.3035 70.3515 42.8589 70.3515 43.5069C70.3515 44.1548 70.9069 44.7102 71.5549 44.7102C72.2029 44.7102 72.7583 44.1548 72.7583 43.5069C72.7583 42.8589 72.1103 42.3035 71.5549 42.3035ZM69.7036 47.3947C68.6853 47.3947 67.9448 48.2278 67.9448 49.1535C67.9448 50.1717 68.7779 50.9123 69.7036 50.9123C70.7218 50.9123 71.4623 50.0792 71.4623 49.1535C71.4623 48.1352 70.7218 47.3947 69.7036 47.3947ZM41.6555 13.4223C43.9697 13.4223 45.9136 11.4784 45.9136 9.16421C45.9136 6.85002 43.9697 4.90609 41.6555 4.90609C39.3413 4.90609 37.3974 6.85002 37.3974 9.16421C37.3974 11.4784 39.3413 13.4223 41.6555 13.4223ZM63.5941 37.3974C61.2799 37.3974 59.336 39.3413 59.336 41.6555C59.336 43.9697 61.2799 45.9136 63.5941 45.9136C65.9083 45.9136 67.8522 43.9697 67.8522 41.6555C67.7596 39.3413 65.9083 37.3974 63.5941 37.3974ZM9.16421 51.0048C6.85002 51.0048 4.90609 52.9488 4.90609 55.263C4.90609 57.5772 6.85002 59.5211 9.16421 59.5211C11.4784 59.5211 13.4223 57.5772 13.4223 55.263C13.4223 52.9488 11.571 51.0048 9.16421 51.0048ZM64.7049 53.5042C63.0387 53.5042 61.7427 54.8001 61.7427 56.4663C61.7427 58.1326 63.0387 59.4285 64.7049 59.4285C66.3711 59.4285 67.6671 58.1326 67.6671 56.4663C67.6671 54.8001 66.3711 53.5042 64.7049 53.5042ZM17.5879 47.3947C16.5696 47.3947 15.8291 48.2278 15.8291 49.1535C15.8291 50.1717 16.6622 50.9123 17.5879 50.9123C18.5136 50.9123 19.3467 50.0792 19.3467 49.1535C19.3467 48.1352 18.5136 47.3947 17.5879 47.3947ZM22.3088 53.5042C20.6426 53.5042 19.3467 54.8001 19.3467 56.4663C19.3467 58.1326 20.6426 59.4285 22.3088 59.4285C23.9751 59.4285 25.271 58.1326 25.271 56.4663C25.271 54.8001 23.9751 53.5042 22.3088 53.5042ZM23.1419 67.4819C22.1237 67.4819 21.3832 68.315 21.3832 69.2407C21.3832 70.1664 22.2163 70.9995 23.1419 70.9995C24.1602 70.9995 24.9007 70.1664 24.9007 69.2407C24.9007 68.315 24.0676 67.4819 23.1419 67.4819ZM15.7365 61.1873C14.0703 61.1873 12.7744 62.4833 12.7744 64.1495C12.7744 65.8157 14.0703 67.1116 15.7365 67.1116C17.4027 67.1116 18.6987 65.8157 18.6987 64.1495C18.6987 62.4833 17.4027 61.1873 15.7365 61.1873ZM27.5852 15.2737C27.5852 15.9217 28.1406 16.4771 28.7886 16.4771C29.4366 16.4771 29.992 15.9217 29.992 15.2737C29.992 14.6257 29.4366 14.0703 28.7886 14.0703C28.048 14.0703 27.5852 14.6257 27.5852 15.2737ZM34.3427 6.38718C34.3427 3.51758 32.0285 1.20338 29.1589 1.20338C26.2893 1.20338 23.9751 3.51758 23.9751 6.38718C23.9751 9.25678 26.2893 11.571 29.1589 11.571C32.0285 11.6635 34.3427 9.34935 34.3427 6.38718ZM28.696 69.7961C28.048 69.7961 27.4926 70.3515 27.4926 70.9995C27.4926 71.6475 28.048 72.2029 28.696 72.2029C29.344 72.2029 29.8994 71.6475 29.8994 70.9995C29.8994 70.3515 29.344 69.7961 28.696 69.7961ZM31.1028 58.7805C28.7886 58.7805 26.8447 60.7245 26.8447 63.0387C26.8447 65.3529 28.7886 67.2968 31.1028 67.2968C33.417 67.2968 35.3609 65.3529 35.3609 63.0387C35.3609 60.7245 33.417 58.7805 31.1028 58.7805Z" fill="#111111"/>
<path d="M91.8002 55.6444L94.7608 17.6593C96.3994 17.3614 98.3358 17.2124 100.57 17.2124C102.805 17.2124 104.76 17.3614 106.436 17.6593L109.731 31.3451C111.035 37.527 111.724 40.8972 111.798 41.4559H112.189C112.338 40.5248 113.027 37.1546 114.256 31.3451L117.608 17.6593C119.246 17.3614 121.183 17.2124 123.417 17.2124C125.652 17.2124 127.607 17.3614 129.283 17.6593L132.243 55.6444C131.089 55.9423 129.664 56.0913 127.97 56.0913C126.275 56.0913 124.888 55.9982 123.808 55.812L122.914 40.2828C122.654 34.1009 122.505 29.7996 122.468 27.379H122.132L116.602 50.1142C115.262 50.3377 113.725 50.4494 111.994 50.4494C110.262 50.4494 108.726 50.3377 107.385 50.1142L101.911 27.379H101.52C101.52 30.6934 101.371 34.9947 101.073 40.2828L100.235 55.812C99.1551 55.9982 97.7679 56.0913 96.0735 56.0913C94.3791 56.0913 92.9546 55.9423 91.8002 55.6444ZM158.721 30.3396C161.402 33.0209 162.743 36.8567 162.743 41.8469C162.743 44.0813 162.454 46.1109 161.877 47.9357C161.3 49.7604 160.462 51.3152 159.363 52.6C158.265 53.8848 156.915 54.8717 155.314 55.5606C153.712 56.2496 151.869 56.594 149.783 56.594C147.698 56.594 145.864 56.2403 144.281 55.5327C142.698 54.8251 141.358 53.829 140.259 52.5442C139.161 51.2594 138.332 49.7046 137.773 47.8798C137.215 46.055 136.935 44.0441 136.935 41.8469C136.935 39.6125 137.215 37.5922 137.773 35.786C138.332 33.9799 139.151 32.4251 140.231 31.1217C141.311 29.8183 142.652 28.8128 144.253 28.1052C145.854 27.3976 147.698 27.0438 149.783 27.0438C153.47 27.0438 156.449 28.1424 158.721 30.3396ZM149.839 33.5795C149.02 33.5795 148.359 33.775 147.856 34.1661C147.353 34.5571 146.953 35.0878 146.655 35.7581C146.357 36.4284 146.152 37.2011 146.041 38.0763C145.929 38.9514 145.873 39.8918 145.873 40.8972C145.873 42.4613 145.92 43.8113 146.013 44.9471C146.106 46.083 146.292 47.0326 146.571 47.796C146.851 48.5594 147.242 49.1274 147.744 49.4998C148.247 49.8722 148.908 50.0584 149.727 50.0584C151.366 50.0584 152.446 49.3415 152.967 47.9077C153.489 46.474 153.749 44.4351 153.749 41.791C153.749 39.1097 153.489 37.0708 152.967 35.6743C152.446 34.2778 151.403 33.5795 149.839 33.5795ZM191.79 37.3222V48.7736C191.79 51.2314 192.237 53.0748 193.131 54.3038C191.716 55.5699 190.022 56.203 188.048 56.203C186.111 56.203 184.789 55.7561 184.082 54.8624C183.374 53.9686 183.02 52.6093 183.02 50.7846V38.8863C183.02 37.6201 182.853 36.6891 182.518 36.0932C182.182 35.4974 181.531 35.1995 180.562 35.1995C180.004 35.1995 179.371 35.3484 178.663 35.6464C177.956 35.9443 177.229 36.4284 176.485 37.0987V55.7561C175.852 55.8679 175.163 55.9517 174.418 56.0075C173.673 56.0634 172.91 56.0913 172.128 56.0913C171.346 56.0913 170.582 56.0634 169.837 56.0075C169.092 55.9517 168.404 55.8679 167.77 55.7561V27.8818L168.161 27.4907H171.457C173.729 27.4907 175.256 28.6079 176.038 30.8424C178.645 28.5335 181.233 27.379 183.802 27.379C186.409 27.379 188.392 28.2821 189.752 30.0882C191.111 31.8944 191.79 34.3057 191.79 37.3222ZM218.436 30.3396C221.117 33.0209 222.458 36.8567 222.458 41.8469C222.458 44.0813 222.169 46.1109 221.592 47.9357C221.015 49.7604 220.177 51.3152 219.078 52.6C217.98 53.8848 216.63 54.8717 215.028 55.5606C213.427 56.2496 211.584 56.594 209.498 56.594C207.413 56.594 205.579 56.2403 203.996 55.5327C202.413 54.8251 201.073 53.829 199.974 52.5442C198.875 51.2594 198.047 49.7046 197.488 47.8798C196.93 46.055 196.65 44.0441 196.65 41.8469C196.65 39.6125 196.93 37.5922 197.488 35.786C198.047 33.9799 198.866 32.4251 199.946 31.1217C201.026 29.8183 202.367 28.8128 203.968 28.1052C205.569 27.3976 207.413 27.0438 209.498 27.0438C213.185 27.0438 216.164 28.1424 218.436 30.3396ZM209.554 33.5795C208.735 33.5795 208.074 33.775 207.571 34.1661C207.068 34.5571 206.668 35.0878 206.37 35.7581C206.072 36.4284 205.867 37.2011 205.756 38.0763C205.644 38.9514 205.588 39.8918 205.588 40.8972C205.588 42.4613 205.635 43.8113 205.728 44.9471C205.821 46.083 206.007 47.0326 206.286 47.796C206.566 48.5594 206.957 49.1274 207.459 49.4998C207.962 49.8722 208.623 50.0584 209.442 50.0584C211.081 50.0584 212.161 49.3415 212.682 47.9077C213.204 46.474 213.464 44.4351 213.464 41.791C213.464 39.1097 213.204 37.0708 212.682 35.6743C212.161 34.2778 211.118 33.5795 209.554 33.5795ZM241.73 43.802H237.317V55.7561C236.125 55.9796 234.635 56.0913 232.848 56.0913C231.023 56.0913 229.534 55.9796 228.379 55.7561V17.8827L228.77 17.4917C232.01 17.4172 234.701 17.3614 236.842 17.3241C238.983 17.2869 240.613 17.2683 241.73 17.2683C243.778 17.2683 245.649 17.5476 247.344 18.1062C249.038 18.6648 250.481 19.5027 251.673 20.6199C252.865 21.7371 253.786 23.1243 254.438 24.7815C255.09 26.4387 255.416 28.3473 255.416 30.5072C255.416 32.6671 255.08 34.5757 254.41 36.2329C253.74 37.8901 252.809 39.2773 251.617 40.3945C250.425 41.5117 248.982 42.3589 247.288 42.9362C245.593 43.5134 243.741 43.802 241.73 43.802ZM237.317 24.0832V37.0987C238.359 37.0615 239.188 37.0336 239.803 37.0149C240.417 36.9963 240.817 36.987 241.004 36.987C242.009 36.987 242.847 36.8101 243.517 36.4563C244.188 36.1026 244.728 35.6371 245.137 35.0598C245.547 34.4826 245.845 33.803 246.031 33.0209C246.217 32.2389 246.31 31.4196 246.31 30.5631C246.31 29.7438 246.217 28.9431 246.031 28.1611C245.845 27.379 245.556 26.6901 245.165 26.0942C244.774 25.4984 244.262 25.0236 243.629 24.6698C242.996 24.316 242.251 24.1391 241.395 24.1391H239.104C239.104 24.1391 238.508 24.1205 237.317 24.0832ZM258.041 31.9037C258.227 31.1589 258.581 30.3303 259.102 29.4179C259.624 28.5055 260.145 27.8445 260.666 27.4349C264.093 27.6956 266.476 29.39 267.817 32.5182C269.232 29.1665 271.559 27.4907 274.799 27.4907C275.767 27.4907 276.996 27.6397 278.486 27.9376C278.486 29.0921 278.29 30.4606 277.899 32.0434C277.508 33.6261 276.978 34.976 276.307 36.0932C275.674 35.8698 274.725 35.6836 273.458 35.5346C271.596 35.5346 270.07 36.4843 268.878 38.3835V55.7561C267.649 55.9796 266.206 56.0913 264.549 56.0913C262.892 56.0913 261.43 55.9796 260.164 55.7561V37.7132C260.164 34.9202 259.456 32.9837 258.041 31.9037ZM302.785 44.6399H288.206C288.28 46.3157 288.708 47.6191 289.49 48.5501C290.272 49.4811 291.557 49.9466 293.345 49.9466C294.239 49.9466 295.272 49.8163 296.445 49.5556C297.618 49.2949 298.968 48.8667 300.495 48.2708C301.724 49.537 302.487 51.2501 302.785 53.41C299.806 55.5327 296.156 56.594 291.837 56.594C289.49 56.594 287.526 56.2216 285.943 55.4768C284.361 54.732 283.076 53.6893 282.089 52.3487C281.102 51.008 280.404 49.4253 279.994 47.6005C279.585 45.7757 279.38 43.7834 279.38 41.6234C279.38 39.538 279.631 37.6108 280.134 35.8419C280.637 34.073 281.4 32.5368 282.424 31.2334C283.448 29.93 284.752 28.9059 286.334 28.1611C287.917 27.4163 289.77 27.0438 291.892 27.0438C293.68 27.0438 295.291 27.3418 296.724 27.9376C298.158 28.5335 299.378 29.3527 300.383 30.3955C301.389 31.4382 302.161 32.6858 302.701 34.1381C303.241 35.5905 303.511 37.1732 303.511 38.8863C303.511 41.1579 303.269 43.0758 302.785 44.6399ZM288.15 38.607H295.523V37.9925C295.523 36.6146 295.216 35.4788 294.602 34.585C293.987 33.6912 293.066 33.2444 291.837 33.2444C290.645 33.2444 289.76 33.6633 289.183 34.5012C288.606 35.3391 288.262 36.7077 288.15 38.607ZM306.584 53.8569C306.621 52.8886 306.872 51.8273 307.338 50.6728C307.803 49.5184 308.353 48.606 308.986 47.9357C311.965 49.4998 314.553 50.2818 316.75 50.2818C317.793 50.2818 318.594 50.1049 319.152 49.7511C319.711 49.3974 319.99 48.9225 319.99 48.3267C319.99 47.2095 319.134 46.3716 317.421 45.813L314.348 44.6399C309.693 42.9268 307.366 40.1338 307.366 36.2608C307.366 33.4306 308.343 31.1868 310.298 29.5296C312.254 27.8724 314.888 27.0438 318.203 27.0438C319.841 27.0438 321.647 27.2766 323.621 27.7421C325.595 28.2076 327.215 28.7569 328.481 29.39C328.556 30.4327 328.351 31.5779 327.867 32.8254C327.382 34.073 326.787 34.9574 326.079 35.4788C322.951 34.0636 320.344 33.3561 318.259 33.3561C317.514 33.3561 316.946 33.5237 316.555 33.8588C316.164 34.194 315.968 34.6223 315.968 35.1436C315.968 36.0374 316.676 36.745 318.091 37.2663L321.554 38.4952C326.507 40.2455 328.984 43.2434 328.984 47.4888C328.984 50.2818 327.96 52.4976 325.911 54.1362C323.863 55.7748 320.94 56.594 317.141 56.594C313.343 56.594 309.824 55.6817 306.584 53.8569ZM331.33 53.8569C331.367 52.8886 331.619 51.8273 332.084 50.6728C332.55 49.5184 333.099 48.606 333.732 47.9357C336.711 49.4998 339.299 50.2818 341.497 50.2818C342.539 50.2818 343.34 50.1049 343.899 49.7511C344.457 49.3974 344.736 48.9225 344.736 48.3267C344.736 47.2095 343.88 46.3716 342.167 45.813L339.095 44.6399C334.44 42.9268 332.112 40.1338 332.112 36.2608C332.112 33.4306 333.09 31.1868 335.045 29.5296C337 27.8724 339.635 27.0438 342.949 27.0438C344.587 27.0438 346.394 27.2766 348.367 27.7421C350.341 28.2076 351.961 28.7569 353.227 29.39C353.302 30.4327 353.097 31.5779 352.613 32.8254C352.129 34.073 351.533 34.9574 350.825 35.4788C347.697 34.0636 345.09 33.3561 343.005 33.3561C342.26 33.3561 341.692 33.5237 341.301 33.8588C340.91 34.194 340.715 34.6223 340.715 35.1436C340.715 36.0374 341.422 36.745 342.837 37.2663L346.301 38.4952C351.254 40.2455 353.73 43.2434 353.73 47.4888C353.73 50.2818 352.706 52.4976 350.658 54.1362C348.609 55.7748 345.686 56.594 341.888 56.594C338.089 56.594 334.57 55.6817 331.33 53.8569Z" fill="#111111"/>
</g>
<defs>
<clipPath id="clip0_2077_2">
<rect width="353.73" height="72.2029" fill="white"/>
</clipPath>
</defs>
</svg>
